<?xml version="1.0" encoding="UTF-8" standalone="no"?><!DOCTYPE svg PUBLIC "-//W3C//DTD SVG 1.1//EN" "http://www.w3.org/Graphics/SVG/1.1/DTD/svg11.dtd"><svg width="100%" height="100%" viewBox="0 0 1079 250" version="1.1" xmlns="http://www.w3.org/2000/svg" xmlns:xlink="http://www.w3.org/1999/xlink" xml:space="preserve" xmlns:serif="http://www.serif.com/" style="fill-rule:evenodd;clip-rule:evenodd;stroke-linejoin:round;stroke-miterlimit:2;"><rect id="logo" x="0" y="0" width="1078.75" height="250" style="fill:none;"/><clipPath id="_clip1"><rect x="0" y="0" width="1078.75" height="250"/></clipPath><g clip-path="url(#_clip1)"><path d="M120.195,250l70.054,-70.101l0,-93.201l1.953,-1.96l56.389,0l-0,92.302l-72.913,72.96l-55.483,-0Zm-47.309,-248.902l103.041,0.014l51.664,51.422l-51.758,-0l-19.127,19.141l-0,94.162l-11.289,11.286l-61.341,-0l-11.19,-11.187l0,-164.838Zm-26.69,26.649l0,149.489l26.647,26.663l61.085,-0l34.178,-34.196l-0,-93.075l13.255,-13.283l56.728,0.002l10.813,10.606l-62.212,-0.021l-7.238,7.245l0,94.245l-74.525,74.578l-32.218,-0l-72.709,-72.764l-0,-103.239l46.196,-46.25Zm438.364,-27.747l76.275,0l-0,146.472c-0,14.527 -2.304,28.195 -6.85,41.125c-4.55,12.867 -11.689,24.191 -21.417,33.855c-9.729,9.668 -19.916,16.417 -30.624,20.364c-14.85,5.433 -32.636,8.177 -53.48,8.177c-12.03,0 -25.153,-0.801 -39.368,-2.518c-14.225,-1.654 -26.082,-4.973 -35.637,-9.95c-9.553,-4.976 -18.306,-12.068 -26.25,-21.218c-7.944,-9.151 -13.354,-18.589 -16.29,-28.313c-4.72,-15.614 -7.081,-29.453 -7.081,-41.522l0,-146.472l76.274,0l0,149.962c0,13.439 3.744,23.905 11.167,31.399c7.482,7.549 17.846,11.325 31.142,11.325c13.127,0 23.489,-3.718 30.972,-11.153c7.423,-7.378 11.167,-17.958 11.167,-31.571l-0,-149.962Zm127.16,0l188.929,0l0,52.79l-112.192,0l-0,42.896l95.789,-0l-0,49.586l-95.789,-0l-0,100.375l-76.737,0l0,-245.647Zm390.922,0l76.274,0l0,146.472c0,14.527 -2.301,28.195 -6.847,41.125c-4.552,12.867 -11.689,24.191 -21.415,33.855c-9.731,9.668 -19.918,16.417 -30.628,20.364c-14.847,5.433 -32.635,8.177 -53.475,8.177c-12.032,0 -25.156,-0.801 -39.374,-2.518c-14.219,-1.654 -26.08,-4.973 -35.636,-9.95c-9.55,-4.976 -18.303,-12.068 -26.247,-21.218c-7.945,-9.151 -13.354,-18.589 -16.288,-28.313c-4.72,-15.614 -7.081,-29.453 -7.081,-41.522l-0,-146.472l76.272,0l0,149.962c0,13.439 3.743,23.905 11.169,31.399c7.48,7.549 17.846,11.325 31.14,11.325c13.126,0 23.487,-3.718 30.972,-11.153c7.423,-7.378 11.164,-17.958 11.164,-31.571l0,-149.962Z" style="fill:#3b3174;"/></g></svg>