<?xml version="1.0" standalone="no"?>
<!DOCTYPE svg PUBLIC "-//W3C//DTD SVG 20010904//EN"
 "http://www.w3.org/TR/2001/REC-SVG-20010904/DTD/svg10.dtd">
<svg version="1.0" xmlns="http://www.w3.org/2000/svg"
 width="500.000000pt" height="500.000000pt" viewBox="0 0 500.000000 500.000000"
 preserveAspectRatio="xMidYMid meet">
<metadata>
Created by potrace 1.14, written by Peter Selinger 2001-2017
</metadata>
<g transform="translate(0.000000,500.000000) scale(0.100000,-0.100000)"
fill="#000000" stroke="none">
<path d="M1580 3248 l0 -1463 102 -102 103 -103 544 0 544 0 99 101 98 100 0
837 0 837 173 173 172 172 460 0 460 0 -460 455 -460 454 -917 1 -918 0 0
-1462z"/>
<path d="M698 3824 l-408 -410 0 -920 0 -919 643 -643 643 -642 289 0 290 0
663 663 662 662 0 835 0 836 68 67 68 67 544 0 545 0 -95 95 -95 95 -500 0
-500 0 -123 -123 -122 -122 0 -825 0 -825 -302 -303 -303 -302 -540 0 -540 0
-238 238 -237 237 -2 1325 -3 1325 -407 -411z"/>
<path d="M3687 3212 c-16 -17 -17 -90 -17 -848 l0 -829 -622 -622 -623 -623
495 0 495 0 648 648 647 647 0 823 0 822 -503 0 c-475 0 -505 -1 -520 -18z"/>
</g>
</svg>
